<svg width="317" height="190" viewBox="0 0 317 190" fill="none" xmlns="http://www.w3.org/2000/svg">
<path d="M125.492 5.02246C139.37 7.03198 140.908 22.1176 142.704 34.0017C148.137 70.0579 149.74 106.888 152.521 143.233C153.11 150.935 155.504 171.131 151.093 177.397C147.898 179.237 148.929 179.247 145.688 178.979C142.676 177.063 141.35 174.399 140.862 170.874C136.156 137.001 135.622 102.147 132.123 68.122C130.613 53.4893 129.618 37.6645 125.584 23.7479C110.832 51.8673 103.796 86.5381 93.8411 116.537C91.014 125.075 86.7318 147.938 76.4454 148.754C71.537 147.597 68.8203 143.713 66.6009 139.425C55.1726 117.27 45.0243 34.7454 31.4871 22.4039C31.3766 22.3008 31.2569 22.2069 31.1371 22.1075C19.8359 49.0523 18.9887 117.234 15.8677 148.413C15.2517 157.454 15.3106 166.57 14.4339 175.588C13.8233 181.869 11.7513 184.622 5.32254 184.391C2.89045 183.133 1.68681 181.579 0.790778 179.012C-3.05305 167.994 8.18191 59.0787 11.6473 39.1079C12.9945 31.3459 14.4974 23.0713 18.1221 15.997C20.1472 12.0443 23.3049 7.72698 27.7657 6.38025C30.7872 5.46708 33.8262 5.96508 36.5428 7.52538C55.6054 18.4705 70.2385 102.644 76.3625 125.57C85.8293 92.7333 94.8081 58.1196 107.968 26.6568C111.495 18.2348 116.661 8.43579 125.492 5.02246Z" fill="#E794A6"/>
<path d="M305.247 0.0175484C305.595 0.00345501 305.943 -0.0021429 306.291 0.000731125C311.197 0.0592973 313.37 4.75188 313.909 8.93688C314.619 14.4539 314.501 19.8305 314.693 25.3514L315.675 59.9808L316.373 107.491C316.861 127.154 317.017 146.824 316.842 166.493C316.756 171.865 317.737 188.59 308.791 188.012C299.689 187.423 301.197 171.561 301.202 164.952L301.152 141.398C301.066 131.736 300.577 122.042 300.439 112.38C300.374 107.89 300.178 102.778 300.36 98.3222C296.142 98.5342 291.236 98.4235 286.934 98.5227L246.391 99.2728C237.515 99.5206 228.636 99.687 219.756 99.7724C215.658 99.8263 209.993 100.067 206.006 99.7807C206.052 100.133 206.094 100.486 206.131 100.84C206.541 104.794 206.391 112.181 206.449 116.366C206.661 126.128 206.806 135.892 206.883 145.656C206.993 153.441 207.297 161.207 207.413 168.985C207.498 174.708 208.404 182.381 204.592 187.085C204.136 187.556 203.638 187.983 203.103 188.361C200.014 190.515 195.798 189.22 194.008 186.129C190.673 180.373 191.677 171.537 191.559 164.977L191.007 135.507C190.711 123.079 190.078 110.234 189.872 97.8489C189.558 77.3031 189.672 56.753 190.216 36.212L190.456 21.7122C190.497 17.3073 190.385 12.3308 191.22 8.01932C191.694 5.57342 192.681 2.8729 194.897 1.5576C196.524 0.591906 197.751 0.378633 199.597 0.741718C201.794 1.17408 204.323 3.58523 204.804 5.84762C206.172 12.2891 205.031 24.8138 205.168 30.8363C205.312 37.2375 205.189 83.7405 206.247 85.4513C213.608 85.4263 220.739 85.0876 228.065 84.9791L299.995 83.859C299.545 81.8491 299.519 69.4532 299.516 66.9704L299.492 33.1353C299.449 25.8776 298.775 18.6507 298.921 11.4126C299.025 6.1874 299.652 1.72146 305.247 0.0175484Z" fill="#E591A4"/>
</svg>
