<svg width="800" height="195" viewBox="0 0 800 195" fill="none" xmlns="http://www.w3.org/2000/svg">
<path fill-rule="evenodd" clip-rule="evenodd" d="M774.514 35.0625C796.367 32.8385 801.027 57.8536 798.992 74.3633C794.599 109.986 768.473 137.487 745.018 162.612C740.883 166.142 736.702 168.825 732.448 172.299C725.044 178.333 717.907 196.339 707.62 194.851C701.386 188.551 722.207 165.779 727.014 160.025L728.193 158.174C727.41 155.12 710.944 140.242 707.334 136.535C700.464 129.492 694.24 121.849 688.733 113.697C678.354 98.2306 671.253 82.3975 674.762 63.4659C680.14 34.472 710.705 31.9087 728.681 51.0723C733.11 55.7954 735.56 59.5711 739.115 65.1124C745.874 50.7947 758.831 38.5358 774.514 35.0625ZM776.384 49.4141C775.325 49.415 774.266 49.4597 773.207 49.5499C759.145 57.4728 753.453 68.9232 747.864 83.5118C745.838 88.779 743.959 95.957 737.661 95.7667C727.116 90.7746 723.561 43.191 697.592 53.6377C679.644 60.8629 693.144 92.4757 700.106 103.902C713.809 123.582 721.204 130.466 738.37 146.428C754.844 130.501 767.792 115.702 777.719 94.5401C781.301 86.9016 791.68 49.557 776.384 49.4141Z" fill="#E794A6"/>
<path d="M125.492 0C139.37 2.00952 140.908 17.0952 142.704 28.9792C148.137 65.0354 149.74 101.866 152.521 138.21C153.11 145.912 155.504 166.109 151.093 172.375C147.898 174.215 148.929 174.224 145.688 173.956C142.676 172.041 141.35 169.377 140.862 165.852C136.156 131.978 135.622 97.1242 132.123 63.0996C130.613 48.4668 129.618 32.642 125.584 18.7254C110.832 46.8449 103.796 81.5157 93.8411 111.515C91.014 120.053 86.7318 142.915 76.4454 143.732C71.537 142.574 68.8203 138.691 66.6009 134.403C55.1725 112.248 45.0243 29.723 31.4871 17.3814C31.3766 17.2783 31.2569 17.1844 31.1371 17.085C19.8359 44.0299 18.9887 112.212 15.8677 143.391C15.2517 152.431 15.3106 161.547 14.4339 170.566C13.8233 176.847 11.7513 179.6 5.32254 179.369C2.89044 178.111 1.68681 176.557 0.790778 173.989C-3.05305 162.972 8.18191 54.0563 11.6473 34.0854C12.9945 26.3235 14.4974 18.0488 18.1221 10.9746C20.1472 7.0218 23.3049 2.70452 27.7657 1.35779C30.7872 0.444622 33.8262 0.942617 36.5428 2.50292C55.6054 13.448 70.2385 97.6213 76.3625 120.547C85.8293 87.7109 94.8081 53.0971 107.968 21.6343C111.495 13.2124 116.661 3.41332 125.492 0Z" fill="#E794A6"/>
<path fill-rule="evenodd" clip-rule="evenodd" d="M557.403 81.1437C570.618 79.5383 572.101 82.8052 581.392 91.2941C582.166 92.0065 586.862 92.9108 588.29 93.257C589.607 94.3119 590.776 95.6113 591.117 97.2609C595.675 118.914 597.103 141.667 609.25 160.946C611.902 165.149 616.129 164.704 617.565 170.969C610.972 187.214 595.003 166.948 592.121 158.531C589.506 150.906 585.095 143.531 583.658 135.163C583.271 132.912 582.24 129.539 580.914 127.739L579.754 129.196C572.58 143.28 549.871 184.851 527.714 176.512C508.826 169.401 518.947 134.988 524.841 121.505C531.711 105.784 540.284 88.2971 557.403 81.1437ZM574.449 101.157C569.108 95.8045 568.491 94.3031 560.608 94.7072C545.073 104.973 536.48 129.361 532.217 146.841C531.121 151.329 530.173 159.07 533.534 162.655C537.558 163.409 538.654 162.07 541.758 159.587C558.002 143.624 569.347 123.351 574.449 101.157Z" fill="#E794A6"/>
<path fill-rule="evenodd" clip-rule="evenodd" d="M215.198 85.6677C228.413 84.9101 230.043 86.4507 240.016 96.0564C239.961 96.0012 244.464 96.6833 245.137 96.9226C252.209 99.4514 250.58 111.309 252.025 117.359C254.014 130.642 255.543 145.298 260.424 157.862C263.067 164.683 269.328 171.261 272.966 177.593C273.398 178.471 273.15 179.733 272.469 180.52C255.248 200.478 241.968 144.933 240.31 138.277L239.372 134.966C238.138 135.145 201.551 204.876 183.068 171.737C176.88 160.639 180.25 142.906 183.998 131.459C190.131 112.699 197.13 95.3424 215.198 85.6677ZM219.69 98.4197C205.278 107.68 199.136 129.644 194.955 145.35C193.61 150.395 191.088 163.982 198.326 164.786C200.959 163.421 201.346 163.168 203.501 161.141C218.355 145.462 229.158 126.097 232.888 104.695C227.62 99.7647 226.901 98.5329 219.69 98.4197Z" fill="#E794A6"/>
<path d="M340.587 79.2864C348.12 78.7322 362.302 81.04 364.042 89.9498C360.644 96.909 351.629 93.0759 345.67 91.5358C315.106 101.655 321.405 143.811 317.73 168.911C317.03 173.717 315.262 175.092 311.404 177.646C309.866 177.359 304.755 176.255 304.193 174.655C299.902 162.49 293.741 100.039 303.493 93.3594L305.768 94.2772C311.266 100.568 310.722 101.488 311.404 109.955C317.684 93.9559 323.016 84.5794 340.587 79.2864Z" fill="#E794A6"/>
<path d="M463.618 85.103C468.683 85.1776 472.477 86.8714 472.965 92.4893C475.267 118.521 476.704 144.597 479.936 170.539C480.222 172.802 476.888 175.913 475.442 177.445C461.233 177.914 462.467 141.324 461.279 130.784C459.99 119.292 457.273 93.9097 463.618 85.103Z" fill="#E794A6"/>
<path d="M400.068 85.0029C401.744 85.5838 407.021 88.0968 407.26 90.0042C410.566 116.372 410.907 142.953 416.506 169.019C417.05 171.534 413.679 174.635 412.012 176.344C392.885 172.921 396.431 111.043 395.169 95.4703C394.819 91.0793 396.909 88.0103 400.068 85.0029Z" fill="#E794A6"/>
<path d="M461.169 25.5689C466.123 23.3817 471.907 25.5864 474.144 30.5112C476.382 35.437 474.236 41.2464 469.337 43.5349C466.123 45.0363 462.338 44.6956 459.447 42.641C456.555 40.5864 454.98 37.1353 455.34 33.6033C455.699 30.0721 457.918 27.004 461.169 25.5689Z" fill="#E794A6"/>
<path d="M397.066 25.5522C400.455 24.2322 404.304 24.9005 407.049 27.2883C409.793 29.6753 410.99 33.3896 410.161 36.9309C409.323 40.4731 406.588 43.2586 403.061 44.1662C398.042 45.4578 392.885 42.6161 391.292 37.683C389.708 32.7498 392.232 27.4329 397.066 25.5522Z" fill="#E794A6"/>
</svg>
